<svg width="429" height="442" viewBox="0 0 429 442" fill="none" xmlns="http://www.w3.org/2000/svg">
<g filter="url(#filter0_d_13_11)">
<rect x="279.55" y="30.9909" width="49.2558" height="70.1277" rx="10" fill="#6070FF"/>
<path d="M75.3882 153.521H347.366V407.646C347.366 413.169 342.889 417.646 337.366 417.646H85.3882C79.8654 417.646 75.3882 413.169 75.3882 407.646V153.521Z" fill="#CDDEFF"/>
<path d="M211.377 60.9726L347.366 153.773H75.3882L211.377 60.9726Z" fill="#CDDEFF"/>
<rect x="171.044" y="275.128" width="80.6653" height="138.487" rx="10" fill="#6070FF"/>
<path d="M19.7473 169.727C13.8117 161.523 15.7838 150.251 24.152 144.55L211.114 17.1749L232.609 46.8829L45.6466 174.258C37.2783 179.959 25.6828 177.93 19.7473 169.727Z" fill="#6070FF"/>
<path d="M400.999 171.069C394.743 179.524 382.675 181.505 374.044 175.492L189.065 46.6204L211.72 16L396.7 144.872C405.33 150.884 407.255 162.613 400.999 171.069Z" fill="#6070FF"/>
<path d="M125.256 351.576C122.269 351.576 119.773 350.936 117.768 349.656C115.805 348.376 114.312 346.605 113.288 344.344C112.264 342.083 111.667 339.459 111.496 336.472L117.896 334.744C118.024 336.579 118.301 338.349 118.728 340.056C119.197 341.763 119.944 343.171 120.968 344.28C121.992 345.347 123.421 345.88 125.256 345.88C127.133 345.88 128.541 345.368 129.48 344.344C130.461 343.277 130.952 341.763 130.952 339.8C130.952 337.453 130.419 335.576 129.352 334.168C128.285 332.717 126.941 331.267 125.32 329.816L116.616 322.136C114.909 320.643 113.651 319.021 112.84 317.272C112.029 315.48 111.624 313.283 111.624 310.68C111.624 306.883 112.712 303.939 114.888 301.848C117.064 299.757 120.029 298.712 123.784 298.712C125.832 298.712 127.624 298.989 129.16 299.544C130.739 300.056 132.04 300.867 133.064 301.976C134.131 303.085 134.963 304.493 135.56 306.2C136.2 307.864 136.627 309.827 136.84 312.088L130.696 313.752C130.568 312.045 130.312 310.488 129.928 309.08C129.544 307.629 128.861 306.477 127.88 305.624C126.941 304.728 125.576 304.28 123.784 304.28C121.992 304.28 120.584 304.771 119.56 305.752C118.579 306.691 118.088 308.099 118.088 309.976C118.088 311.555 118.344 312.856 118.856 313.88C119.411 314.904 120.285 315.949 121.48 317.016L130.248 324.696C132.211 326.403 133.939 328.451 135.432 330.84C136.925 333.187 137.672 335.981 137.672 339.224C137.672 341.784 137.139 344.003 136.072 345.88C135.005 347.715 133.533 349.123 131.656 350.104C129.821 351.085 127.688 351.576 125.256 351.576ZM152.946 351.512C150.045 351.512 147.805 350.957 146.226 349.848C144.647 348.696 143.538 347.032 142.898 344.856C142.301 342.637 142.002 339.928 142.002 336.728V328.28C142.002 324.995 142.322 322.264 142.962 320.088C143.602 317.912 144.711 316.269 146.29 315.16C147.911 314.051 150.13 313.496 152.946 313.496C156.061 313.496 158.343 314.136 159.794 315.416C161.287 316.696 162.269 318.552 162.738 320.984C163.207 323.373 163.442 326.253 163.442 329.624V332.632H148.85V340.056C148.85 341.549 148.978 342.765 149.234 343.704C149.533 344.643 149.981 345.347 150.578 345.816C151.218 346.243 152.029 346.456 153.01 346.456C154.034 346.456 154.802 346.221 155.314 345.752C155.869 345.24 156.231 344.536 156.402 343.64C156.615 342.701 156.722 341.613 156.722 340.376V338.136H163.378V339.544C163.378 343.256 162.589 346.179 161.01 348.312C159.431 350.445 156.743 351.512 152.946 351.512ZM148.85 328.92H156.722V325.592C156.722 324.056 156.637 322.776 156.466 321.752C156.295 320.685 155.933 319.896 155.378 319.384C154.866 318.829 154.034 318.552 152.882 318.552C151.773 318.552 150.919 318.808 150.322 319.32C149.767 319.832 149.383 320.707 149.17 321.944C148.957 323.139 148.85 324.803 148.85 326.936V328.92ZM269.571 351.512C266.67 351.512 264.43 350.957 262.851 349.848C261.272 348.696 260.163 347.032 259.523 344.856C258.926 342.637 258.627 339.928 258.627 336.728V328.28C258.627 324.995 258.947 322.264 259.587 320.088C260.227 317.912 261.336 316.269 262.915 315.16C264.536 314.051 266.755 313.496 269.571 313.496C272.686 313.496 274.968 314.136 276.419 315.416C277.912 316.696 278.894 318.552 279.363 320.984C279.832 323.373 280.067 326.253 280.067 329.624V332.632H265.475V340.056C265.475 341.549 265.603 342.765 265.859 343.704C266.158 344.643 266.606 345.347 267.203 345.816C267.843 346.243 268.654 346.456 269.635 346.456C270.659 346.456 271.427 346.221 271.939 345.752C272.494 345.24 272.856 344.536 273.027 343.64C273.24 342.701 273.347 341.613 273.347 340.376V338.136H280.003V339.544C280.003 343.256 279.214 346.179 277.635 348.312C276.056 350.445 273.368 351.512 269.571 351.512ZM265.475 328.92H273.347V325.592C273.347 324.056 273.262 322.776 273.091 321.752C272.92 320.685 272.558 319.896 272.003 319.384C271.491 318.829 270.659 318.552 269.507 318.552C268.398 318.552 267.544 318.808 266.947 319.32C266.392 319.832 266.008 320.707 265.795 321.944C265.582 323.139 265.475 324.803 265.475 326.936V328.92ZM294.845 351.512C291.73 351.512 289.405 350.381 287.869 348.12C286.333 345.816 285.565 341.933 285.565 336.472V329.304C285.565 326.488 285.799 323.885 286.269 321.496C286.738 319.064 287.613 317.123 288.893 315.672C290.215 314.221 292.135 313.496 294.653 313.496C295.89 313.496 297.021 313.773 298.045 314.328C299.069 314.883 299.986 315.565 300.797 316.376V299.16H307.645V351H300.797V348.632C299.986 349.485 299.09 350.189 298.109 350.744C297.17 351.256 296.082 351.512 294.845 351.512ZM296.573 346.136C297.213 346.136 297.895 346.029 298.621 345.816C299.346 345.56 300.071 345.197 300.797 344.728V320.472C300.199 320.045 299.538 319.683 298.812 319.384C298.087 319.043 297.298 318.872 296.445 318.872C294.866 318.872 293.799 319.64 293.245 321.176C292.69 322.669 292.413 324.483 292.413 326.616V337.048C292.413 338.755 292.498 340.312 292.669 341.72C292.882 343.085 293.287 344.173 293.885 344.984C294.482 345.752 295.378 346.136 296.573 346.136Z" fill="#6070FF"/>
<path d="M179.756 351.512C176.726 351.512 174.422 350.915 172.844 349.72C171.308 348.483 170.262 346.755 169.708 344.536C169.196 342.317 168.94 339.736 168.94 336.792V328.28C168.94 325.165 169.217 322.52 169.772 320.344C170.326 318.125 171.372 316.44 172.908 315.288C174.486 314.093 176.769 313.496 179.756 313.496C182.444 313.496 184.513 313.944 185.964 314.84C187.457 315.693 188.481 316.995 189.036 318.744C189.59 320.451 189.868 322.584 189.868 325.144V327.32H183.66V325.08C183.66 323.459 183.553 322.179 183.34 321.24C183.126 320.301 182.742 319.619 182.188 319.192C181.633 318.765 180.844 318.552 179.82 318.552C178.71 318.552 177.857 318.808 177.26 319.32C176.662 319.832 176.257 320.707 176.044 321.944C175.873 323.139 175.788 324.781 175.788 326.872V338.52C175.788 341.677 176.086 343.789 176.684 344.856C177.281 345.923 178.348 346.456 179.884 346.456C181.036 346.456 181.868 346.2 182.38 345.688C182.934 345.133 183.276 344.365 183.404 343.384C183.574 342.403 183.66 341.293 183.66 340.056V337.048H189.868V339.608C189.868 342.083 189.569 344.216 188.972 346.008C188.417 347.8 187.393 349.165 185.9 350.104C184.449 351.043 182.401 351.512 179.756 351.512ZM201.268 351.512C199.817 351.512 198.687 351.128 197.876 350.36C197.065 349.592 196.489 348.632 196.148 347.48C195.849 346.328 195.7 345.155 195.7 343.96V314.008H202.548V341.912C202.548 343.235 202.74 344.28 203.124 345.048C203.508 345.773 204.297 346.136 205.492 346.136C206.26 346.136 207.049 345.923 207.86 345.496C208.713 345.027 209.524 344.472 210.292 343.832V314.008H217.14V351H210.292V347.352C209.097 348.504 207.732 349.485 206.196 350.296C204.703 351.107 203.06 351.512 201.268 351.512ZM224.336 351V314.008H231.184V319.256C232.549 316.995 233.914 315.48 235.28 314.712C236.645 313.944 238.01 313.56 239.376 313.56C239.546 313.56 239.696 313.56 239.824 313.56C239.994 313.56 240.208 313.581 240.464 313.624V321.176C239.952 320.963 239.354 320.792 238.672 320.664C238.032 320.493 237.37 320.408 236.688 320.408C235.621 320.408 234.64 320.664 233.744 321.176C232.89 321.645 232.037 322.584 231.184 323.992V351H224.336ZM245.154 351V314.008H252.002V351H245.154ZM245.154 308.504V301.336H252.002V308.504H245.154Z" fill="white"/>
</g>
<defs>
<filter id="filter0_d_13_11" x="0.321289" y="3.05176e-05" width="428.353" height="441.646" filterUnits="userSpaceOnUse" color-interpolation-filters="sRGB">
<feFlood flood-opacity="0" result="BackgroundImageFix"/>
<feColorMatrix in="SourceAlpha" type="matrix" values="0 0 0 0 0 0 0 0 0 0 0 0 0 0 0 0 0 0 127 0" result="hardAlpha"/>
<feOffset dx="4" dy="4"/>
<feGaussianBlur stdDeviation="10"/>
<feComposite in2="hardAlpha" operator="out"/>
<feColorMatrix type="matrix" values="0 0 0 0 0 0 0 0 0 0 0 0 0 0 0 0 0 0 0.3 0"/>
<feBlend mode="normal" in2="BackgroundImageFix" result="effect1_dropShadow_13_11"/>
<feBlend mode="normal" in="SourceGraphic" in2="effect1_dropShadow_13_11" result="shape"/>
</filter>
</defs>
</svg>
